<svg xmlns="http://www.w3.org/2000/svg" xmlns:xlink="http://www.w3.org/1999/xlink" width="111" height="35" viewBox="0 0 111 35">
    <defs>
        <path id="a" d="M.536.561h9.507v12.122H.536z"/>
        <path id="c" d="M0 .65h32.453v9.545H0z"/>
    </defs>
    <g fill="none" fill-rule="evenodd" opacity=".654">
        <path fill="#665D51" d="M41.585 22.462V6.7h8.848v1.206h-7.505v6.027h6.344v1.206h-6.344v7.323zM54.663 21.53c.576 0 1.197-.118 1.865-.354a10.305 10.305 0 0 0 2.025-.989v-2.843a11.382 11.382 0 0 0-2.957-.409c-2.123 0-3.185.82-3.185 2.456 0 .698.19 1.23.57 1.592.378.364.94.546 1.682.546zm4.025.932l-.113-1.32c-1.305 1.047-2.669 1.57-4.094 1.57-1.047 0-1.877-.299-2.49-.899-.614-.598-.922-1.398-.922-2.399 0-1.107.38-1.979 1.138-2.615.758-.637 1.79-.956 3.093-.956 1.015 0 2.1.174 3.253.523v-1.91c0-.925-.22-1.588-.66-1.99-.44-.402-1.168-.603-2.184-.603-1.213 0-2.509.243-3.889.728v-1.069a9.503 9.503 0 0 1 1.956-.614 10.518 10.518 0 0 1 2.138-.228c1.334 0 2.323.282 2.968.842.644.561.967 1.41.967 2.547v8.393h-1.16zM62.897 22.462v-11.44h1.137l.136 1.66c.577-.637 1.14-1.087 1.695-1.353.553-.265 1.178-.398 1.876-.398.258 0 .568.023.932.068v1.16c-.394-.03-.75-.046-1.07-.046-.696 0-1.314.129-1.852.387-.54.258-1.058.675-1.558 1.25v8.712h-1.296zM74.564 21.12c1.138 0 2.313-.485 3.525-1.456v-6.322c-.622-.516-1.22-.89-1.796-1.126a4.836 4.836 0 0 0-1.842-.353c-1.214 0-2.127.395-2.741 1.183-.614.79-.921 1.956-.921 3.503 0 1.486.322 2.62.966 3.4.645.78 1.58 1.171 2.809 1.171zm3.525-.34a6.833 6.833 0 0 1-1.865 1.113c-.681.273-1.334.41-1.956.41-1.455 0-2.623-.52-3.502-1.558-.88-1.039-1.32-2.415-1.32-4.128 0-1.835.436-3.283 1.308-4.345.872-1.06 2.059-1.59 3.56-1.59 1.425 0 2.69.506 3.798 1.522l.137-1.183h1.137v10.917c0 1.79-.455 3.151-1.365 4.083-.91.933-2.228 1.4-3.957 1.4-1.44 0-2.677-.289-3.707-.865v-1.07c1.273.501 2.486.751 3.639.751 1.41 0 2.445-.348 3.104-1.046.659-.698.989-1.797.989-3.298V20.78zM85.343 21.53c.576 0 1.197-.118 1.865-.354a10.305 10.305 0 0 0 2.025-.989v-2.843a11.382 11.382 0 0 0-2.957-.409c-2.123 0-3.185.82-3.185 2.456 0 .698.189 1.23.569 1.592.379.364.94.546 1.683.546zm4.025.932l-.113-1.32c-1.305 1.047-2.67 1.57-4.094 1.57-1.047 0-1.877-.299-2.49-.899-.614-.598-.922-1.398-.922-2.399 0-1.107.379-1.979 1.138-2.615.758-.637 1.789-.956 3.093-.956 1.015 0 2.099.174 3.253.523v-1.91c0-.925-.221-1.588-.661-1.99-.44-.402-1.167-.603-2.183-.603-1.213 0-2.51.243-3.89.728v-1.069a9.503 9.503 0 0 1 1.957-.614 10.518 10.518 0 0 1 2.138-.228c1.334 0 2.323.282 2.968.842.644.561.967 1.41.967 2.547v8.393h-1.161zM99.4 22.212c-.638.258-1.404.387-2.299.387-.894 0-1.576-.24-2.046-.717-.47-.478-.706-1.171-.706-2.081v-7.642h-2.136v-.91l2.183-.204.181-3.344h1.07v3.32h3.638v1.138h-3.638v7.574c0 .622.132 1.06.397 1.319.266.258.71.387 1.332.387.62 0 1.294-.091 2.023-.273v1.046z"/>
        <g transform="translate(100 10.12)">
            <mask id="b" fill="#fff">
                <use xlink:href="#a"/>
            </mask>
            <path fill="#665D51" d="M5.653 1.721c-2.396 0-3.66 1.357-3.798 4.071H8.77c.015-.213.023-.463.023-.751 0-1.091-.266-1.918-.796-2.478-.53-.562-1.312-.842-2.343-.842zM1.855 6.838c.015 1.592.363 2.768 1.046 3.526.683.757 1.736 1.136 3.161 1.136a9.143 9.143 0 0 0 3.753-.796v1.07c-1.076.606-2.357.909-3.844.909-1.804 0-3.16-.512-4.07-1.535C.99 10.124.535 8.605.535 6.588c0-1.911.458-3.392 1.376-4.446C2.83 1.088 4.114.561 5.767.561c1.38 0 2.437.394 3.172 1.182.735.79 1.104 1.918 1.104 3.389 0 .683-.046 1.251-.137 1.706h-8.05z" mask="url(#b)"/>
        </g>
        <g transform="translate(0 10.12)">
            <mask id="d" fill="#fff">
                <use xlink:href="#c"/>
            </mask>
            <path fill="#665D51" d="M27.56.675a.473.473 0 1 0-.298.899c2.696.89 4.242 2.05 4.242 3.181 0 2.232-5.248 4.492-15.277 4.492-10.031 0-15.28-2.26-15.28-4.492 0-1.103 1.487-2.242 4.08-3.124a.475.475 0 0 0 .296-.602.472.472 0 0 0-.602-.295C1.633 1.785 0 3.175 0 4.755c0 3.305 6.37 5.44 16.227 5.44 9.856 0 16.226-2.135 16.226-5.44 0-1.59-1.74-3.039-4.893-4.08" mask="url(#d)"/>
        </g>
        <path fill="#665D51" d="M16.226.995l8.666 4.015v8.35c0 .757-.444 1.445-1.133 1.752-1.376.616-3.708 1.337-7.06 1.402V8.94a.474.474 0 0 0-.274-.429L8.214 4.707 16.226.995zM7.56 13.36V5.448l8.19 3.795v7.271c-3.35-.065-5.682-.786-7.058-1.402A1.918 1.918 0 0 1 7.56 13.36zm.744 2.617c1.527.683 4.14 1.497 7.92 1.497 3.782 0 6.396-.814 7.922-1.497a2.87 2.87 0 0 0 1.692-2.617V4.707a.473.473 0 0 0-.274-.43L16.425.044a.47.47 0 0 0-.398 0l-9.14 4.233a.46.46 0 0 0-.115.077c-.005.004-.008.01-.012.014a.499.499 0 0 0-.09.12c-.003.008-.01.012-.012.02-.004.008-.003.016-.006.024a.416.416 0 0 0-.032.135c-.001.011-.005.02-.005.031l-.001.01v8.652c0 1.13.664 2.157 1.69 2.617zM25.346 27.72l-2.278 1.055v-3.386a.474.474 0 0 0-.275-.43l-2.298-1.065 2.099-.972 2.752 1.275v3.523zm-5.504-3.084l2.278 1.056v3.083l-2.278-1.055v-3.084zm-.948 7.213l-2.277 1.056v-3.386a.474.474 0 0 0-.275-.43l-2.3-1.064 2.1-.973 2.752 1.275v3.522zm-5.504-3.083l2.278 1.056v3.083l-2.278-1.056v-3.083zm-6.451-4.13l2.278 1.056v3.083L6.939 27.72v-3.084zm2.752-1.714l2.752 1.275v3.523l-2.28 1.055v-3.386a.473.473 0 0 0-.273-.43l-2.3-1.065 2.1-.972zm16.328.542l-3.226-1.494a.477.477 0 0 0-.398 0l-3.227 1.494c-.013.007-.024.018-.038.026-.005.002-.012 0-.016.005-.012.007-.021.018-.032.026-.014.01-.028.02-.042.034a.671.671 0 0 0-.048.058c-.01.013-.021.025-.03.04a.478.478 0 0 0-.034.076c-.005.013-.012.025-.016.039a.48.48 0 0 0-.018.126v3.389L16.342 26.1a.472.472 0 0 0-.4 0l-2.552 1.182v-3.39a.475.475 0 0 0-.274-.43L9.89 21.97a.477.477 0 0 0-.398 0l-3.226 1.494c-.015.007-.025.018-.038.026-.006.002-.013 0-.018.005-.011.007-.02.018-.031.026a.446.446 0 0 0-.042.034.682.682 0 0 0-.05.058c-.01.013-.02.025-.027.04a.35.35 0 0 0-.035.076c-.005.013-.012.025-.016.039a.479.479 0 0 0-.017.126v4.128c0 .184.106.352.274.429l3.226 1.495c.063.029.13.044.199.044.06 0 .119-.016.176-.04.007-.001.015-.001.023-.004l2.553-1.182v3.388c0 .184.107.352.274.429l3.226 1.495c.063.03.132.044.199.044.06 0 .12-.016.177-.04.006-.002.015-.001.023-.004l3.226-1.495a.473.473 0 0 0 .274-.43v-3.387l2.553 1.182a.477.477 0 0 0 .199.044.452.452 0 0 0 .176-.04c.008-.001.016-.001.023-.004l3.226-1.495a.473.473 0 0 0 .274-.43v-4.127a.475.475 0 0 0-.274-.43z"/>
    </g>
</svg>
