<svg xmlns="http://www.w3.org/2000/svg" xmlns:xlink="http://www.w3.org/1999/xlink" width="118" height="35" viewBox="0 0 118 35">
    <defs>
        <path id="a" d="M.318.905h8.78v12.032H.318z"/>
        <path id="c" d="M0 .661h34.339V35H0z"/>
    </defs>
    <g fill="none" fill-rule="evenodd" opacity=".654">
        <path fill="#665D51" d="M42.567 25.025V9.263h1.343V23.82h7.914v1.205zM56.305 24.093c.576 0 1.197-.117 1.865-.353a10.305 10.305 0 0 0 2.025-.99v-2.842a11.382 11.382 0 0 0-2.957-.41c-2.123 0-3.185.82-3.185 2.457 0 .698.189 1.229.569 1.592.379.364.94.546 1.683.546zm4.025.933l-.113-1.32c-1.305 1.047-2.67 1.57-4.094 1.57-1.047 0-1.877-.3-2.49-.9-.614-.597-.922-1.397-.922-2.398 0-1.107.379-1.98 1.138-2.615.758-.637 1.789-.956 3.093-.956 1.015 0 2.099.174 3.253.523v-1.91c0-.925-.221-1.588-.661-1.99-.44-.402-1.167-.603-2.183-.603-1.213 0-2.51.243-3.89.728v-1.07a9.503 9.503 0 0 1 1.957-.613 10.518 10.518 0 0 1 2.138-.228c1.334 0 2.323.282 2.968.842.644.56.967 1.41.967 2.547v8.393H60.33zM79.594 25.025v-7.778c0-.986-.175-1.702-.523-2.15-.35-.447-.902-.67-1.661-.67-1.44 0-2.812.477-4.116 1.432.046.364.069.721.069 1.07v8.096h-1.297v-7.778c0-.986-.174-1.702-.523-2.15-.35-.447-.902-.67-1.66-.67-1.41 0-2.76.462-4.05 1.387v9.211h-1.295v-11.44h1.137l.137 1.251a8.206 8.206 0 0 1 2.149-1.183 6.396 6.396 0 0 1 2.195-.409c1.424 0 2.379.584 2.866 1.751a8.538 8.538 0 0 1 2.273-1.296 6.716 6.716 0 0 1 2.389-.455c1.046 0 1.842.296 2.388.886.545.592.819 1.45.819 2.571v8.324h-1.297zM89.01 14.427c-.652 0-1.281.118-1.888.353-.606.235-1.236.602-1.887 1.103v6.663c.622.546 1.228.94 1.819 1.184a4.88 4.88 0 0 0 1.865.363c1.243 0 2.18-.405 2.809-1.217.629-.81.944-2.02.944-3.628 0-3.214-1.221-4.821-3.662-4.821zm-5.071 10.599V8.196h1.296v6.618c.667-.531 1.33-.925 1.99-1.183a5.538 5.538 0 0 1 2.035-.387c1.47 0 2.63.528 3.48 1.58.849 1.055 1.274 2.499 1.274 4.333 0 1.88-.447 3.37-1.342 4.47-.895 1.1-2.1 1.649-3.616 1.649-1.396 0-2.677-.523-3.844-1.57l-.137 1.32h-1.136zM101.087 24.093c1.137 0 2.327-.485 3.57-1.455v-6.733c-.636-.515-1.247-.89-1.831-1.125a4.915 4.915 0 0 0-1.853-.353c-1.213 0-2.134.409-2.763 1.228-.63.819-.944 2.033-.944 3.639 0 3.199 1.273 4.799 3.82 4.799zm3.707.933l-.137-1.274a6.75 6.75 0 0 1-1.876 1.114c-.69.273-1.353.41-1.99.41-1.501 0-2.687-.527-3.56-1.58-.872-1.054-1.307-2.5-1.307-4.333 0-1.88.439-3.371 1.319-4.47.879-1.1 2.077-1.65 3.594-1.65 1.409 0 2.684.5 3.82 1.502v-6.55h1.297v16.83h-1.16z"/>
        <g transform="translate(108 12.339)">
            <mask id="b" fill="#fff">
                <use xlink:href="#a"/>
            </mask>
            <path fill="#665D51" d="M3.912 11.754c.576 0 1.197-.117 1.865-.353a10.305 10.305 0 0 0 2.025-.99V7.57a11.382 11.382 0 0 0-2.957-.41c-2.123 0-3.185.82-3.185 2.457 0 .698.19 1.229.57 1.592.378.364.94.546 1.682.546zm4.025.933l-.113-1.32c-1.305 1.047-2.669 1.57-4.094 1.57-1.047 0-1.877-.3-2.49-.9C.626 11.44.318 10.64.318 9.64c0-1.107.38-1.98 1.138-2.615.758-.637 1.79-.956 3.093-.956 1.015 0 2.1.174 3.253.523V4.68c0-.925-.22-1.588-.66-1.99-.44-.402-1.168-.603-2.184-.603-1.213 0-2.509.243-3.889.728v-1.07a9.503 9.503 0 0 1 1.956-.613A10.518 10.518 0 0 1 5.163.905c1.334 0 2.323.282 2.968.842.644.56.967 1.41.967 2.547v8.393h-1.16z" mask="url(#b)"/>
        </g>
        <g transform="translate(0 -.661)">
            <mask id="d" fill="#fff">
                <use xlink:href="#c"/>
            </mask>
            <path fill="#665D51" d="M17.169 1.661c-8.916 0-16.17 7.254-16.17 16.17 0 8.916 7.254 16.17 16.17 16.17 8.916 0 16.17-7.254 16.17-16.17 0-8.916-7.254-16.17-16.17-16.17m0 33.34C7.702 35-.001 27.297-.001 17.83 0 8.363 7.703.661 17.17.661c9.468 0 17.17 7.702 17.17 17.17 0 9.467-7.702 17.17-17.17 17.17" mask="url(#d)"/>
        </g>
        <path fill="#665D51" d="M21.696 24.61h3.861v-3.396H24.14a.5.5 0 0 1-.45-.282L17.205 7.535H12.24v3.394h2.522c.192 0 .367.11.451.283l6.484 13.398zm4.361 1h-4.674a.5.5 0 0 1-.45-.282L14.447 11.93H11.74a.5.5 0 0 1-.5-.5V7.035a.5.5 0 0 1 .5-.5h5.78a.5.5 0 0 1 .45.282l6.484 13.397h1.604a.5.5 0 0 1 .5.5v4.396a.5.5 0 0 1-.5.5z"/>
        <path fill="#665D51" d="M9.55 24.61h3.769l2.53-5.288-1.89-3.907-4.408 9.195zm4.084 1H8.757a.5.5 0 0 1-.451-.716l5.2-10.847a.5.5 0 0 1 .45-.285h.002a.5.5 0 0 1 .45.283l2.446 5.058a.504.504 0 0 1 0 .434l-2.77 5.79a.5.5 0 0 1-.45.283z"/>
    </g>
</svg>
