<svg xmlns="http://www.w3.org/2000/svg" xmlns:xlink="http://www.w3.org/1999/xlink" width="1600" height="800" viewBox="0 0 1600 800">
    <defs>
        <radialGradient id="b" cx="86.418%" cy="34.061%" r="121.131%" fx="86.418%" fy="34.061%" gradientTransform="scale(-.5 -1) rotate(-15.314 -2.966 9.642)">
            <stop offset="0%" stop-color="#7E7871"/>
            <stop offset="16.902%" stop-color="#68635E"/>
            <stop offset="100%" stop-color="#514D49"/>
        </radialGradient>
        <path id="a" d="M0 0h1600v800H0z"/>
        <linearGradient id="d" x1="100%" x2="0%" y1="50%" y2="50%">
            <stop offset="0%" stop-color="#FFF" stop-opacity=".247"/>
            <stop offset="100%" stop-color="#FFF" stop-opacity="0"/>
        </linearGradient>
        <radialGradient id="e" r="43.064%" fx="50%" fy="50%" gradientTransform="matrix(.62589 .67923 -.2508 .17529 .312 .073)">
            <stop offset="0%" stop-color="#FFF" stop-opacity=".247"/>
            <stop offset="100%" stop-color="#FFF" stop-opacity="0"/>
        </radialGradient>
        <linearGradient id="f" x1="50%" x2="50%" y1="10.199%" y2="100%">
            <stop offset="0%" stop-color="#FFF" stop-opacity=".15"/>
            <stop offset="100%" stop-color="#FFF" stop-opacity="0"/>
        </linearGradient>
        <radialGradient id="g" cx="70.908%" cy="69.221%" r="100%" fx="70.908%" fy="69.221%" gradientTransform="matrix(-1 0 0 -.26057 1.418 .873)">
            <stop offset="0%" stop-color="#FFF" stop-opacity=".247"/>
            <stop offset="100%" stop-color="#FFF" stop-opacity="0"/>
        </radialGradient>
        <linearGradient id="h" x1="50%" x2="50%" y1="0%" y2="100%">
            <stop offset="0%" stop-color="#FFF" stop-opacity=".15"/>
            <stop offset="100%" stop-color="#FFF" stop-opacity="0"/>
        </linearGradient>
        <linearGradient id="i" x1="100%" x2="57.78%" y1="50%" y2="65.542%">
            <stop offset="0%" stop-color="#FFF" stop-opacity=".2"/>
            <stop offset="100%" stop-color="#FFF" stop-opacity="0"/>
        </linearGradient>
        <radialGradient id="j" cx="81.547%" cy="36.286%" r="32.744%" fx="81.547%" fy="36.286%" gradientTransform="matrix(.60475 .2525 -.05075 .31116 .34 .044)">
            <stop offset="0%" stop-color="#FFF" stop-opacity=".247"/>
            <stop offset="100%" stop-color="#FFF" stop-opacity="0"/>
        </radialGradient>
        <linearGradient id="k" x1="0%" x2="60.51%" y1="75.635%" y2="82.6%">
            <stop offset="0%" stop-color="#FFF" stop-opacity=".1"/>
            <stop offset="100%" stop-color="#FFF" stop-opacity="0"/>
        </linearGradient>
        <radialGradient id="l" cx="13.722%" cy="90.697%" r="26.942%" fx="13.722%" fy="90.697%" gradientTransform="matrix(.54148 .24803 -.04458 .31153 .103 .59)">
            <stop offset="0%" stop-color="#FFF" stop-opacity=".247"/>
            <stop offset="100%" stop-color="#FFF" stop-opacity="0"/>
        </radialGradient>
        <radialGradient id="m" cx="100%" cy="0%" r="136.509%" fx="100%" fy="0%" gradientTransform="scale(-1 -.76661) rotate(-54.37 0 1.947)">
            <stop offset="0%" stop-color="#7E7871"/>
            <stop offset="16.902%" stop-color="#68635E"/>
            <stop offset="100%" stop-color="#514D49"/>
        </radialGradient>
        <radialGradient id="n" cx="60.471%" r="88.036%" fx="60.471%" fy="50%" gradientTransform="matrix(-.9922 -.09551 .04495 -.2744 1.182 .695)">
            <stop offset="0%" stop-color="#FFF" stop-opacity=".247"/>
            <stop offset="100%" stop-color="#FFF" stop-opacity="0"/>
        </radialGradient>
        <radialGradient id="o" cx="100%" cy="0%" r="173.343%" fx="100%" fy="0%" gradientTransform="matrix(-.45876 .4907 -.88856 -.25334 1.459 -.49)">
            <stop offset="0%" stop-color="#7E7871"/>
            <stop offset="16.902%" stop-color="#68635E"/>
            <stop offset="100%" stop-color="#514D49"/>
        </radialGradient>
        <radialGradient id="p" cx="68.881%" cy="71.37%" r="181.678%" fx="68.881%" fy="71.37%" gradientTransform="matrix(-.25877 -.53343 .14136 -.02091 .766 1.096)">
            <stop offset="0%" stop-color="#FFF" stop-opacity=".247"/>
            <stop offset="100%" stop-color="#FFF" stop-opacity="0"/>
        </radialGradient>
        <radialGradient id="q" cx="66.967%" cy="14.936%" r="88.036%" fx="66.967%" fy="14.936%" gradientTransform="matrix(-.9922 -.09551 .04495 -.2744 1.327 .254)">
            <stop offset="0%" stop-color="#FFF" stop-opacity=".247"/>
            <stop offset="100%" stop-color="#FFF" stop-opacity="0"/>
        </radialGradient>
        <radialGradient id="r" cx="67.369%" cy="81.208%" r="115.238%" fx="67.369%" fy="81.208%" gradientTransform="matrix(-.13228 -.54738 .12288 -.00906 .663 1.188)">
            <stop offset="0%" stop-color="#FFF" stop-opacity=".247"/>
            <stop offset="100%" stop-color="#FFF" stop-opacity="0"/>
        </radialGradient>
    </defs>
    <g fill="none" fill-rule="evenodd">
        <mask id="c" fill="#fff">
            <use xlink:href="#a"/>
        </mask>
        <use fill="url(#b)" xlink:href="#a"/>
        <g mask="url(#c)">
            <path fill="url(#d)" d="M613.863 1002.168l-587-74.308V84.168z" style="mix-blend-mode:soft-light" transform="translate(144 -187)"/>
            <path stroke="url(#d)" stroke-width="1.5" d="M615.357 1003.112L26.113 928.946V81.603l589.244 921.509z" opacity=".498" transform="translate(144 -187)"/>
            <path fill="url(#d)" d="M457.863 985.668l-431-53.7V490.78z" style="mix-blend-mode:soft-light" transform="translate(144 -187)"/>
            <path stroke="url(#e)" stroke-width="1.5" d="M459.717 986.655L26.113 932.63V488.778l433.604 497.877z" opacity=".446" transform="translate(144 -187)"/>
            <path fill="url(#f)" d="M1237.21 756.027L1357.71 137H785z" style="mix-blend-mode:soft-light" transform="translate(144 -187)"/>
            <path stroke="url(#g)" stroke-width="1.5" d="M1237.617 757.857L783.523 136.25h575.096l-121.002 621.607z" opacity=".497" transform="translate(144 -187)"/>
            <path fill="url(#h)" d="M1467.242 315.195l.121-231.027h-99.709z" style="mix-blend-mode:soft-light" transform="translate(144 -187)"/>
            <path fill="url(#i)" d="M1431.682 741.651l-437.124 222.57-217.063-408.867z" style="mix-blend-mode:soft-light" transform="rotate(-139 1141.63 639.368)"/>
            <path stroke="url(#j)" stroke-width="1.5" d="M1433.724 741.453L994.24 965.223 776.007 554.15l657.717 187.303z" opacity=".497" transform="rotate(-139 1141.63 639.368)"/>
            <path fill="url(#k)" d="M131.646 524.655l409.79 107.373 317.19-447.541z" style="mix-blend-mode:soft-light" transform="rotate(-139 532.178 287.838)"/>
            <path stroke="url(#l)" stroke-width="1.5" d="M115.914 561.012L849.65 217.684 377.867 627.798l-261.953-66.786z" opacity=".398" transform="rotate(-139 518.663 303.385)"/>
            <path fill="url(#m)" d="M127.622 818.449c.08-.065.169-.125.269-.182 4.803-2.738 30.182 4.97 41.614 14.694l-.019.01c12.134 9.098 14.975 25.376 6.98 39.083-3.038 5.202-7.171 9.255-11.92 11.985l-.17.097c-8.904 5.045-19.908 5.435-29.747-.004-10.294-5.686-16.18-16.484-16.044-25.786.08-5.49-1.173-11.085.84-16.384.61-1.604 2.08-2.308 3.753-3.124 1.914-.943 4.102-2.034 5.59-4.816 4.262-7.97-5.16-12.33-1.146-15.573zM37.845 662.97c34.83-19.884 75.94-12.238 94.55 18.882l.69 1.182c18.574 32.545.479 60.945-6.732 81.082-6.228 15.317-15.174 33.166-11.346 54.68.897 5.025-4.255 8.99-8.804 6.572-7.26-3.87-15.825-10.108-21.675-20.126-23.106-39.573 22.394-74.953 8.245-99.185-6.63-11.353-20.1-13.889-33.434-6.276-11.475 6.55-14.735 17.666-12.938 26.64.56 2.827-1.266 5.577-4.077 6.338L8.52 741.915a5.732 5.732 0 0 1-6.403-2.545l-.094-.16c-.27-.48-.471-1.01-.592-1.58-5.596-26.241 4.954-56.7 36.414-74.66z" opacity=".353" style="mix-blend-mode:soft-light" transform="translate(144 -187)"/>
            <path stroke="url(#n)" stroke-width="1.5" d="M127.622 818.449c.08-.065.169-.125.269-.182 4.803-2.738 30.182 4.97 41.614 14.694l-.019.01c12.134 9.098 14.975 25.376 6.98 39.083-3.038 5.202-7.171 9.255-11.92 11.985l-.17.097c-8.904 5.045-19.908 5.435-29.747-.004-10.294-5.686-16.18-16.484-16.044-25.786.08-5.49-1.173-11.085.84-16.384.61-1.604 2.08-2.308 3.753-3.124 1.914-.943 4.102-2.034 5.59-4.816 4.262-7.97-5.16-12.33-1.146-15.573zM37.845 662.97c34.83-19.884 75.94-12.238 94.55 18.882l.69 1.182c18.574 32.545.479 60.945-6.732 81.082-6.228 15.317-15.174 33.166-11.346 54.68.897 5.025-4.255 8.99-8.804 6.572-7.26-3.87-15.825-10.108-21.675-20.126-23.106-39.573 22.394-74.953 8.245-99.185-6.63-11.353-20.1-13.889-33.434-6.276-11.475 6.55-14.735 17.666-12.938 26.64.56 2.827-1.266 5.577-4.077 6.338L8.52 741.915a5.732 5.732 0 0 1-6.403-2.545l-.094-.16c-.27-.48-.471-1.01-.592-1.58-5.596-26.241 4.954-56.7 36.414-74.66z" transform="translate(144 -187)"/>
            <path fill="url(#o)" d="M328.327 654.25c.165-.027.337-.04.522-.04 8.907.007 37.958 31.24 45.964 54.107h-.034c9.491 22.55.22 47.739-22.04 60.604-8.454 4.88-17.498 7.262-26.323 7.289h-.316c-16.487-.054-32.116-8.345-41.387-23.903-9.704-16.27-9.12-36.194-1.374-49.174 4.57-7.661 7.374-16.54 14.48-22.38 2.152-1.767 4.77-1.577 7.76-1.381 3.429.21 7.36.433 11.69-2.288 12.405-7.79 2.838-21.494 11.058-22.834zm1.4-290.907c64.617 0 115.606 43.783 116.217 102.525v2.217c-.597 60.719-48.848 86.146-75.241 108.69-21.11 16.55-48.058 34.481-60.212 67.83-2.834 7.791-13.224 9.233-17.588 2.176-6.959-11.279-13.808-26.937-13.808-45.733 0-74.249 92.054-87.484 92.054-132.95 0-21.3-16.683-35.689-41.422-35.689-21.288 0-34.855 13.023-39.645 27.095-1.516 4.428-6.293 6.83-10.822 5.643l-54.475-14.272c-4.09-1.064-6.78-4.73-6.841-8.725v-.302a9.089 9.089 0 0 1 .46-2.698c13.532-41.421 52.957-75.807 111.323-75.807z" opacity=".353" style="mix-blend-mode:soft-light" transform="rotate(-30 54.997 207.569)"/>
            <path stroke="url(#p)" stroke-width="1.5" d="M328.327 654.25c.165-.027.337-.04.522-.04 8.907.007 37.958 31.24 45.964 54.107h-.034c9.491 22.55.22 47.739-22.04 60.604-8.454 4.88-17.498 7.262-26.323 7.289h-.316c-16.487-.054-32.116-8.345-41.387-23.903-9.704-16.27-9.12-36.194-1.374-49.174 4.57-7.661 7.374-16.54 14.48-22.38 2.152-1.767 4.77-1.577 7.76-1.381 3.429.21 7.36.433 11.69-2.288 12.405-7.79 2.838-21.494 11.058-22.834zm1.4-290.907c64.617 0 115.606 43.783 116.217 102.525v2.217c-.597 60.719-48.848 86.146-75.241 108.69-21.11 16.55-48.058 34.481-60.212 67.83-2.834 7.791-13.224 9.233-17.588 2.176-6.959-11.279-13.808-26.937-13.808-45.733 0-74.249 92.054-87.484 92.054-132.95 0-21.3-16.683-35.689-41.422-35.689-21.288 0-34.855 13.023-39.645 27.095-1.516 4.428-6.293 6.83-10.822 5.643l-54.475-14.272c-4.09-1.064-6.78-4.73-6.841-8.725v-.302a9.089 9.089 0 0 1 .46-2.698c13.532-41.421 52.957-75.807 111.323-75.807z" opacity=".5" transform="rotate(-30 54.997 207.569)"/>
            <path fill="url(#m)" d="M850.622 786.449c.08-.065.169-.125.269-.182 4.803-2.738 30.182 4.97 41.614 14.694l-.019.01c12.134 9.098 14.975 25.376 6.98 39.083-3.038 5.202-7.171 9.255-11.92 11.985l-.17.097c-8.904 5.045-19.908 5.435-29.747-.004-10.294-5.686-16.18-16.484-16.044-25.786.08-5.49-1.173-11.085.84-16.384.61-1.604 2.08-2.308 3.753-3.124 1.914-.943 4.102-2.034 5.59-4.816 4.262-7.97-5.16-12.33-1.146-15.573zM760.845 630.97c34.83-19.884 75.94-12.238 94.55 18.882l.69 1.182c18.574 32.545.479 60.945-6.732 81.082-6.228 15.317-15.174 33.166-11.346 54.68.897 5.025-4.255 8.99-8.804 6.572-7.26-3.87-15.825-10.108-21.675-20.126-23.106-39.573 22.394-74.953 8.245-99.185-6.63-11.353-20.1-13.889-33.434-6.276-11.475 6.55-14.735 17.666-12.938 26.64.56 2.827-1.266 5.577-4.077 6.338l-33.804 9.156a5.732 5.732 0 0 1-6.403-2.545l-.094-.16c-.27-.48-.471-1.01-.592-1.58-5.596-26.241 4.954-56.7 36.414-74.66z" opacity=".353" style="mix-blend-mode:soft-light" transform="translate(144 -187)"/>
            <path stroke="url(#q)" stroke-width="1.5" d="M850.622 786.449c.08-.065.169-.125.269-.182 4.803-2.738 30.182 4.97 41.614 14.694l-.019.01c12.134 9.098 14.975 25.376 6.98 39.083-3.038 5.202-7.171 9.255-11.92 11.985l-.17.097c-8.904 5.045-19.908 5.435-29.747-.004-10.294-5.686-16.18-16.484-16.044-25.786.08-5.49-1.173-11.085.84-16.384.61-1.604 2.08-2.308 3.753-3.124 1.914-.943 4.102-2.034 5.59-4.816 4.262-7.97-5.16-12.33-1.146-15.573zM760.845 630.97c34.83-19.884 75.94-12.238 94.55 18.882l.69 1.182c18.574 32.545.479 60.945-6.732 81.082-6.228 15.317-15.174 33.166-11.346 54.68.897 5.025-4.255 8.99-8.804 6.572-7.26-3.87-15.825-10.108-21.675-20.126-23.106-39.573 22.394-74.953 8.245-99.185-6.63-11.353-20.1-13.889-33.434-6.276-11.475 6.55-14.735 17.666-12.938 26.64.56 2.827-1.266 5.577-4.077 6.338l-33.804 9.156a5.732 5.732 0 0 1-6.403-2.545l-.094-.16c-.27-.48-.471-1.01-.592-1.58-5.596-26.241 4.954-56.7 36.414-74.66z" transform="translate(144 -187)"/>
            <path fill="url(#o)" d="M1050.327 537.25c.165-.027.337-.04.522-.04 8.907.007 37.958 31.24 45.964 54.107h-.034c9.491 22.55.22 47.739-22.04 60.604-8.454 4.88-17.498 7.262-26.323 7.289h-.316c-16.487-.054-32.116-8.345-41.387-23.903-9.704-16.27-9.12-36.194-1.374-49.174 4.57-7.661 7.374-16.54 14.48-22.38 2.152-1.767 4.77-1.577 7.76-1.381 3.429.21 7.36.433 11.69-2.288 12.405-7.79 2.838-21.494 11.058-22.834zm1.4-290.907c64.617 0 115.606 43.783 116.217 102.525v2.217c-.597 60.719-48.848 86.146-75.241 108.69-21.11 16.55-48.058 34.481-60.212 67.83-2.834 7.791-13.224 9.233-17.588 2.176-6.959-11.279-13.808-26.937-13.808-45.733 0-74.249 92.054-87.484 92.054-132.95 0-21.3-16.683-35.689-41.422-35.689-21.288 0-34.855 13.023-39.645 27.095-1.516 4.428-6.293 6.83-10.822 5.643l-54.475-14.272c-4.09-1.064-6.78-4.73-6.841-8.725v-.302a9.089 9.089 0 0 1 .46-2.698c13.532-41.421 52.957-75.807 111.323-75.807z" opacity=".353" style="mix-blend-mode:soft-light" transform="rotate(-30 776.997 90.569)"/>
            <path stroke="url(#r)" stroke-width="1.5" d="M1050.327 537.25c.165-.027.337-.04.522-.04 8.907.007 37.958 31.24 45.964 54.107h-.034c9.491 22.55.22 47.739-22.04 60.604-8.454 4.88-17.498 7.262-26.323 7.289h-.316c-16.487-.054-32.116-8.345-41.387-23.903-9.704-16.27-9.12-36.194-1.374-49.174 4.57-7.661 7.374-16.54 14.48-22.38 2.152-1.767 4.77-1.577 7.76-1.381 3.429.21 7.36.433 11.69-2.288 12.405-7.79 2.838-21.494 11.058-22.834zm1.4-290.907c64.617 0 115.606 43.783 116.217 102.525v2.217c-.597 60.719-48.848 86.146-75.241 108.69-21.11 16.55-48.058 34.481-60.212 67.83-2.834 7.791-13.224 9.233-17.588 2.176-6.959-11.279-13.808-26.937-13.808-45.733 0-74.249 92.054-87.484 92.054-132.95 0-21.3-16.683-35.689-41.422-35.689-21.288 0-34.855 13.023-39.645 27.095-1.516 4.428-6.293 6.83-10.822 5.643l-54.475-14.272c-4.09-1.064-6.78-4.73-6.841-8.725v-.302a9.089 9.089 0 0 1 .46-2.698c13.532-41.421 52.957-75.807 111.323-75.807z" opacity=".495" transform="rotate(-30 776.997 90.569)"/>
        </g>
    </g>
</svg>
